<svg xmlns="http://www.w3.org/2000/svg" xmlns:xlink="http://www.w3.org/1999/xlink" width="1000" zoomAndPan="magnify" viewBox="0 0 750 749.999995" height="1000" preserveAspectRatio="xMidYMid meet" version="1.0"><defs><clipPath id="2c6a9d43de"><path d="M 352 664 L 375 664 L 375 680.785156 L 352 680.785156 Z M 352 664 " clip-rule="nonzero"/></clipPath><clipPath id="ef11f060c5"><path d="M 19.035156 69.535156 L 730.785156 69.535156 L 730.785156 472 L 19.035156 472 Z M 19.035156 69.535156 " clip-rule="nonzero"/></clipPath><clipPath id="cd937178b1"><path d="M 119 344 L 629 344 L 629 680.785156 L 119 680.785156 Z M 119 344 " clip-rule="nonzero"/></clipPath></defs><g clip-path="url(#2c6a9d43de)"><path fill="#000000" d="M 352.617188 664.140625 C 360.765625 664.941406 363.714844 679.222656 374.707031 672.6875 C 371.460938 680.492188 367.339844 683.675781 361.023438 675.277344 C 358.230469 671.550781 355.417969 667.847656 352.613281 664.140625 Z M 352.617188 664.140625 " fill-opacity="1" fill-rule="evenodd"/></g><path fill="#000000" d="M 75.53125 208.320312 C 75.398438 211.378906 73.328125 212.023438 70.851562 211.976562 C 68.988281 211.9375 66.964844 211.734375 66.601562 209.433594 C 66.15625 206.617188 68.0625 205.09375 70.429688 204.664062 C 73.085938 204.167969 74.589844 206.027344 75.53125 208.324219 Z M 75.53125 208.320312 " fill-opacity="1" fill-rule="evenodd"/><path fill="#000000" d="M 58.261719 214.121094 C 56.109375 214.226562 54.75 213.449219 55.257812 211.863281 C 55.554688 210.933594 57.199219 210.21875 58.371094 209.867188 C 58.882812 209.71875 59.738281 210.726562 60.433594 211.199219 C 59.648438 212.265625 58.855469 213.328125 58.261719 214.121094 Z M 58.261719 214.121094 " fill-opacity="1" fill-rule="evenodd"/><path fill="#fefefe" d="M 368.335938 581.46875 C 375.257812 589.757812 381.730469 596.878906 387.316406 604.625 C 388.796875 606.667969 369.382812 626.308594 366.769531 625.882812 C 364.261719 625.476562 347.640625 605.496094 348.867188 603.984375 C 354.894531 596.554688 361.339844 589.46875 368.335938 581.464844 Z M 368.335938 581.46875 " fill-opacity="1" fill-rule="evenodd"/><g clip-path="url(#ef11f060c5)"><path fill="#000000" d="M 43.417969 217.792969 C 43.785156 218.191406 44.15625 218.59375 44.515625 218.996094 C 44.527344 218.996094 44.546875 218.996094 44.558594 218.996094 C 44.324219 218.457031 43.914062 218.078125 43.417969 217.792969 Z M 19.035156 209.105469 C 19.417969 208.894531 19.835938 208.660156 20.269531 208.433594 C 24.453125 204.582031 29.3125 202.335938 34.792969 201.59375 C 39.773438 199.410156 45.304688 197.070312 50.933594 194.746094 C 51.207031 194.617188 51.484375 194.503906 51.777344 194.390625 C 71.972656 186.046875 93.015625 177.972656 93.015625 177.972656 L 93.472656 178.320312 C 183.601562 142.9375 273.773438 107.667969 363.871094 72.210938 C 372.136719 68.949219 379.476562 68.917969 387.742188 72.238281 C 424.816406 87.105469 462.105469 101.445312 499.257812 116.105469 C 573.566406 145.4375 647.839844 174.851562 722.125 204.222656 C 725.386719 205.457031 729.296875 205.640625 730.785156 209.679688 C 726.902344 211.601562 723.121094 213.785156 719.117188 215.429688 C 670.714844 235.324219 681.71875 221.738281 680.015625 272.613281 C 679.6875 282.3125 681.8125 287.910156 691.835938 292.523438 C 716.433594 303.84375 720.710938 332.523438 702.046875 351.636719 C 702.046875 351.636719 702.046875 351.644531 702.046875 351.644531 C 701.265625 352.425781 700.480469 353.203125 699.699219 353.988281 C 686.710938 358.878906 691.015625 369.222656 693.417969 377.535156 C 701.222656 404.523438 703.074219 432.03125 703.445312 459.894531 C 703.5625 468.828125 699.867188 470.996094 692.300781 470.972656 C 679.121094 470.929688 665.933594 470.699219 652.765625 471.050781 C 643.539062 471.296875 640.695312 467.183594 641.722656 458.53125 C 645.058594 430.53125 645.046875 402.066406 653.257812 374.757812 C 656.101562 365.296875 654.949219 358.933594 646.296875 351.542969 C 626.628906 334.757812 632.429688 304.675781 655.957031 293.773438 C 659.328125 292.210938 663.410156 291.910156 665.796875 288.53125 C 665.761719 288.539062 665.722656 288.546875 665.6875 288.550781 C 665.890625 275.394531 665.417969 262.179688 666.488281 249.097656 C 667.527344 236.332031 662.386719 237.292969 653.371094 240.960938 C 626.339844 251.988281 599.0625 262.410156 571.929688 273.183594 C 568.011719 274.738281 563.113281 275.039062 561.382812 280.058594 C 572.167969 297.273438 577.132812 316.542969 581.371094 336.109375 C 582.867188 343.035156 580.828125 347.980469 575.273438 352.644531 C 520.410156 398.695312 458.300781 426.375 385.820312 426.910156 C 322.316406 427.375 264.625 407.003906 212.503906 372.285156 C 161.851562 338.550781 161.722656 353.945312 186.699219 288.136719 C 190.128906 279.125 189.09375 276.410156 180.152344 272.972656 C 139.707031 257.441406 99.601562 241 59.367188 224.890625 C 53.84375 224.5 48.820312 222.8125 44.605469 219.109375 C 38.996094 218.835938 34.136719 216.535156 29.539062 213.539062 C 26.988281 212.855469 24.4375 212.175781 21.886719 211.503906 C 20.9375 210.878906 19.984375 210.25 19.039062 209.625 C 19.207031 209.449219 19.378906 209.28125 19.566406 209.109375 L 19.039062 209.101562 Z M 19.035156 209.105469 " fill-opacity="1" fill-rule="evenodd"/></g><path fill="#38b6ff" d="M 550.710938 509.6875 C 533.007812 437.507812 430.527344 437.238281 412.746094 509.6875 L 420.335938 509.6875 C 420.339844 509.738281 420.34375 509.789062 420.351562 509.84375 L 441.617188 509.84375 C 441.617188 509.84375 441.621094 509.792969 441.636719 509.6875 Z M 550.710938 509.6875 " fill-opacity="1" fill-rule="evenodd"/><path fill="#38b6ff" d="M 316.730469 509.6875 C 299.027344 437.507812 196.546875 437.238281 178.761719 509.6875 L 186.355469 509.6875 C 186.359375 509.738281 186.363281 509.789062 186.367188 509.84375 L 207.632812 509.84375 C 207.632812 509.84375 207.640625 509.792969 207.65625 509.6875 Z M 316.730469 509.6875 " fill-opacity="1" fill-rule="evenodd"/><g clip-path="url(#cd937178b1)"><path fill="#000000" d="M 277.230469 546.679688 C 283.054688 540.054688 289.132812 542.46875 295.265625 542.007812 C 302.28125 541.480469 309.367188 541.886719 316.53125 541.886719 C 312.960938 569.609375 290.253906 591.605469 261.582031 595.984375 C 232.773438 605.078125 192.628906 585.089844 181.570312 550.640625 C 180.570312 547.53125 177.933594 541.867188 184.453125 542.175781 C 195.527344 542.707031 206.972656 538.65625 217.699219 544.339844 C 237.707031 567.886719 257.539062 569.105469 277.226562 546.679688 Z M 178.769531 509.6875 C 196.546875 437.238281 299.03125 437.507812 316.734375 509.6875 L 207.667969 509.6875 C 207.65625 509.789062 207.648438 509.84375 207.648438 509.84375 L 186.382812 509.84375 C 186.378906 509.792969 186.375 509.742188 186.367188 509.6875 Z M 323.050781 635.1875 C 331.949219 646.730469 342.292969 657.15625 352.019531 668.0625 C 356.003906 670.152344 358.261719 674.058594 361.152344 677.199219 C 366.144531 682.632812 370.296875 680.714844 374.707031 676.839844 C 386.898438 663.554688 399.632812 650.714844 411.085938 636.824219 C 418.261719 628.125 424.546875 626.113281 435.863281 629.753906 C 490.140625 647.214844 549.839844 625.558594 579.667969 578.84375 C 609.246094 532.527344 603.5 477.402344 563.992188 433.410156 C 558.414062 427.207031 557.53125 424.417969 565.445312 419.527344 C 584.144531 407.988281 601.785156 394.8125 618.433594 380.433594 C 629.90625 370.527344 631.773438 360.160156 624.222656 351.367188 C 616.871094 342.808594 605.125 342.640625 594.128906 351.007812 C 581.695312 360.472656 569.691406 370.550781 556.832031 379.386719 C 489.457031 425.703125 416.890625 455.140625 333.101562 444.429688 C 273.410156 436.792969 221.148438 412.261719 176.535156 371.679688 L 176.652344 371.800781 C 167.765625 367.214844 162.113281 358.980469 154.964844 352.441406 C 144.730469 343.082031 133.382812 342.175781 125.199219 350.246094 C 116.601562 358.722656 117.304688 368.664062 127.761719 379.773438 C 139.480469 392.226562 151.917969 404.136719 166.136719 413.539062 C 177.714844 421.195312 180.417969 425.488281 168.902344 437.308594 C 140.648438 466.300781 132.207031 502.664062 141.273438 541.617188 C 157.710938 612.25 231.398438 652.074219 302.09375 629.292969 C 311.546875 626.25 316.964844 627.289062 323.050781 635.183594 Z M 511.210938 546.679688 C 517.035156 540.054688 523.113281 542.46875 529.246094 542.007812 C 536.265625 541.480469 543.347656 541.886719 550.515625 541.886719 C 546.941406 569.609375 524.234375 591.605469 495.5625 595.984375 C 466.757812 605.078125 426.609375 585.089844 415.550781 550.640625 C 414.550781 547.53125 411.914062 541.867188 418.433594 542.175781 C 429.507812 542.707031 440.953125 538.65625 451.679688 544.339844 C 471.6875 567.886719 491.519531 569.105469 511.207031 546.679688 Z M 348.871094 603.992188 C 354.898438 596.558594 361.347656 589.472656 368.34375 581.46875 C 375.265625 589.757812 381.738281 596.878906 387.324219 604.625 C 388.800781 606.667969 369.386719 626.308594 366.773438 625.882812 C 364.265625 625.476562 347.644531 605.496094 348.871094 603.984375 Z M 412.75 509.6875 C 430.527344 437.238281 533.011719 437.507812 550.71875 509.6875 L 441.652344 509.6875 C 441.636719 509.789062 441.628906 509.84375 441.628906 509.84375 L 420.363281 509.84375 C 420.359375 509.792969 420.355469 509.742188 420.351562 509.6875 Z M 412.75 509.6875 " fill-opacity="1" fill-rule="evenodd"/></g></svg>